<svg width="44" height="40" viewBox="0 0 44 40" fill="none" xmlns="http://www.w3.org/2000/svg">
<rect x="4" width="36" height="32" fill="#1E3040"/>
<path d="M18.672 12.156C18.56 12.156 18.452 12.148 18.348 12.132C18.252 12.124 18.164 12.112 18.084 12.096C18.004 12.08 17.944 12.068 17.904 12.06L18.024 11.196C18.096 11.204 18.208 11.22 18.36 11.244C18.512 11.268 18.68 11.28 18.864 11.28C19.032 11.28 19.172 11.244 19.284 11.172C19.396 11.092 19.48 10.912 19.536 10.632C19.6 10.352 19.632 9.916 19.632 9.324V3.66H20.64V9.168C20.64 9.912 20.552 10.504 20.376 10.944C20.208 11.376 19.976 11.688 19.68 11.88C19.384 12.064 19.048 12.156 18.672 12.156ZM24.7489 12.168C24.4209 12.168 24.1049 12.128 23.8009 12.048C23.4969 11.976 23.2249 11.888 22.9849 11.784C22.7529 11.68 22.5689 11.592 22.4329 11.52C22.2969 11.44 22.2289 11.4 22.2289 11.4C22.2289 11.4 22.2449 11.36 22.2769 11.28C22.3169 11.192 22.3609 11.096 22.4089 10.992C22.4569 10.88 22.4969 10.784 22.5289 10.704C22.5689 10.624 22.5889 10.584 22.5889 10.584C22.5889 10.584 22.6529 10.62 22.7809 10.692C22.9169 10.756 23.0969 10.832 23.3209 10.92C23.5449 11 23.8009 11.076 24.0889 11.148C24.3769 11.212 24.6769 11.244 24.9889 11.244C25.1889 11.244 25.3449 11.228 25.4569 11.196C25.5769 11.156 25.6609 11.12 25.7089 11.088C25.8689 10.976 25.9929 10.824 26.0809 10.632C26.1689 10.432 26.2129 10.176 26.2129 9.864C26.2129 9.56 26.1489 9.308 26.0209 9.108C25.8929 8.908 25.7209 8.74 25.5049 8.604C25.2969 8.468 25.0689 8.348 24.8209 8.244C24.5009 8.108 24.2009 7.972 23.9209 7.836C23.6409 7.7 23.3929 7.544 23.1769 7.368C22.9609 7.192 22.7929 6.972 22.6729 6.708C22.5529 6.436 22.4929 6.1 22.4929 5.7C22.4929 5.284 22.5849 4.912 22.7689 4.584C22.9529 4.248 23.2289 3.984 23.5969 3.792C23.9649 3.592 24.4209 3.492 24.9649 3.492C25.2289 3.492 25.4769 3.508 25.7089 3.54C25.9409 3.564 26.1489 3.592 26.3329 3.624C26.5169 3.656 26.6609 3.688 26.7649 3.72C26.8689 3.744 26.9209 3.756 26.9209 3.756L26.7529 4.62C26.7529 4.62 26.6969 4.612 26.5849 4.596C26.4729 4.572 26.3209 4.544 26.1289 4.512C25.9369 4.48 25.7209 4.456 25.4809 4.44C25.2409 4.416 24.9969 4.404 24.7489 4.404C24.5489 4.404 24.3889 4.416 24.2689 4.44C24.1569 4.464 24.0569 4.504 23.9689 4.56C23.8649 4.616 23.7649 4.732 23.6689 4.908C23.5809 5.076 23.5369 5.308 23.5369 5.604C23.5369 5.932 23.6209 6.2 23.7889 6.408C23.9569 6.616 24.1769 6.788 24.4489 6.924C24.7209 7.052 25.0089 7.18 25.3129 7.308C25.5529 7.404 25.7889 7.516 26.0209 7.644C26.2529 7.764 26.4609 7.912 26.6449 8.088C26.8289 8.264 26.9769 8.488 27.0889 8.76C27.2009 9.024 27.2569 9.348 27.2569 9.732C27.2569 10.22 27.1489 10.648 26.9329 11.016C26.7249 11.376 26.4329 11.66 26.0569 11.868C25.6809 12.068 25.2449 12.168 24.7489 12.168Z" fill="#F8FAFB"/>
<g filter="url(#filter0_d_3_13)">
<rect x="4.5" y="0.5" width="35" height="31" stroke="#F8FAFB" shape-rendering="crispEdges"/>
</g>
<line x1="7.74275" y1="22.5713" x2="17.7428" y2="16.5713" stroke="#F8FAFB"/>
<line x1="8.1857" y1="22.5358" x2="18.1857" y2="26.5358" stroke="#F8FAFB"/>
<line y1="-0.5" x2="11.6619" y2="-0.5" transform="matrix(-0.857493 -0.514496 -0.514496 0.857493 35 23)" stroke="#F8FAFB"/>
<line y1="-0.5" x2="10.7703" y2="-0.5" transform="matrix(-0.928477 0.371391 0.371391 0.928477 35 23)" stroke="#F8FAFB"/>
<line x1="18.5419" y1="28.7996" x2="25.5419" y2="12.7996" stroke="#F8FAFB"/>
<defs>
<filter id="filter0_d_3_13" x="0" y="0" width="44" height="40" filterUnits="userSpaceOnUse" color-interpolation-filters="sRGB">
<feFlood flood-opacity="0" result="BackgroundImageFix"/>
<feColorMatrix in="SourceAlpha" type="matrix" values="0 0 0 0 0 0 0 0 0 0 0 0 0 0 0 0 0 0 127 0" result="hardAlpha"/>
<feOffset dy="4"/>
<feGaussianBlur stdDeviation="2"/>
<feComposite in2="hardAlpha" operator="out"/>
<feColorMatrix type="matrix" values="0 0 0 0 0 0 0 0 0 0 0 0 0 0 0 0 0 0 0.25 0"/>
<feBlend mode="normal" in2="BackgroundImageFix" result="effect1_dropShadow_3_13"/>
<feBlend mode="normal" in="SourceGraphic" in2="effect1_dropShadow_3_13" result="shape"/>
</filter>
</defs>
</svg>
